<?xml version="1.0" standalone="no"?>
<!DOCTYPE svg PUBLIC "-//W3C//DTD SVG 20010904//EN"
 "http://www.w3.org/TR/2001/REC-SVG-20010904/DTD/svg10.dtd">
<svg version="1.0" xmlns="http://www.w3.org/2000/svg"
 width="300.000000pt" height="331.000000pt" viewBox="0 0 300.000000 331.000000"
 preserveAspectRatio="xMidYMid meet">
<metadata>
Created by potrace 1.10, written by Peter Selinger 2001-2011
</metadata>
<g transform="translate(0.000000,331.000000) scale(0.100000,-0.100000)"
fill="#000000" stroke="none">
<path d="M1250 3215 c-96 -10 -135 -20 -235 -59 -66 -25 -136 -54 -155 -62
-19 -9 -90 -36 -158 -61 -180 -65 -191 -73 -263 -195 -32 -54 -47 -90 -134
-333 -67 -188 -115 -320 -150 -410 -14 -38 -48 -131 -75 -205 -26 -74 -54
-150 -60 -168 -7 -19 -9 -37 -4 -41 5 -5 90 -36 189 -70 258 -89 398 -142 415
-158 13 -12 15 -102 15 -693 0 -373 2 -680 5 -683 3 -2 386 -2 851 1 l846 5 7
181 c3 100 9 409 13 689 5 411 9 507 19 507 41 0 465 141 577 192 43 20 64 48
34 48 -14 0 -96 -29 -147 -53 -32 -14 -174 -62 -343 -116 -37 -11 -81 -21 -98
-21 -19 0 -32 -6 -36 -17 -4 -10 -15 -26 -25 -37 -15 -17 -17 -41 -15 -230 3
-347 -18 -1085 -31 -1098 -4 -4 -368 -9 -809 -11 -732 -4 -803 -3 -807 12 -3
9 -4 308 -3 665 l3 649 -24 24 c-12 12 -27 23 -32 23 -6 0 -10 10 -10 22 0 16
-3 19 -11 11 -10 -10 -66 2 -79 18 -3 3 -12 6 -20 6 -13 0 -44 12 -115 44 -11
5 -29 11 -40 14 -11 2 -58 18 -105 35 -47 18 -91 32 -97 33 -7 0 -13 4 -13 8
0 4 -16 10 -35 13 -37 7 -47 30 -23 54 7 7 9 12 5 12 -4 0 5 30 19 68 33 83
81 214 100 267 8 22 18 49 23 60 5 11 24 61 41 110 18 50 37 95 41 101 5 6 7
13 4 16 -3 3 4 27 16 54 11 27 23 59 25 72 3 13 14 47 25 75 12 29 31 79 44
112 12 33 39 87 59 120 20 33 39 68 42 78 4 9 13 17 20 17 8 0 14 4 14 8 0 12
49 38 125 65 139 50 341 129 391 152 78 37 200 49 489 49 292 0 274 4 470 -85
22 -9 57 -21 78 -24 20 -4 37 -10 37 -14 0 -4 6 -8 13 -8 12 -1 117 -37 187
-64 19 -8 41 -20 48 -26 7 -7 17 -13 21 -13 4 0 27 -18 51 -40 24 -22 40 -40
36 -40 -4 0 2 -9 12 -20 11 -11 32 -53 48 -93 15 -40 31 -74 35 -77 4 -3 9
-14 11 -25 1 -11 5 -22 8 -25 3 -3 16 -36 29 -75 13 -38 27 -74 31 -80 4 -5
11 -21 15 -35 4 -14 23 -59 42 -100 20 -41 41 -91 49 -110 7 -19 22 -60 33
-90 12 -30 21 -62 21 -70 0 -8 7 -28 16 -45 9 -16 25 -55 36 -85 35 -98 72
-185 80 -188 5 -2 8 -11 9 -20 0 -11 2 -12 6 -4 2 6 9 10 14 6 14 -8 12 -1
-35 119 -24 61 -65 171 -90 242 -26 72 -76 198 -111 280 -35 83 -87 211 -116
285 -109 280 -145 315 -414 410 -66 23 -176 64 -245 91 -69 27 -149 53 -179
59 -71 13 -406 10 -551 -5z"/>
</g>
</svg>
